<?xml version="1.0" encoding="iso-8859-1"?>
<!-- Generator: Adobe Illustrator 19.0.0, SVG Export Plug-In . SVG Version: 6.00 Build 0)  -->
<svg version="1.1" id="Layer_1" xmlns="http://www.w3.org/2000/svg" xmlns:xlink="http://www.w3.org/1999/xlink" x="0px" y="0px"
	 viewBox="0 0 126.853 126.853" style="enable-background:new 0 0 126.853 126.853;" xml:space="preserve">
<g>
	<g>
		<g>
			<circle style="fill:#FF8F8F;" cx="103.42" cy="85.303" r="21.931"/>
		</g>
		<g>
			<ellipse style="fill:#FF1A1A;" cx="103.42" cy="85.303" rx="21.931" ry="16.799"/>
		</g>
		<g>
			<path style="fill:#FFFFFF;" d="M81.489,85.303c0,12.113,9.82,21.932,21.932,21.932c12.111,0,21.93-9.818,21.93-21.932H81.489z"/>
		</g>
		<g>
			<path style="fill:#D8E5EA;" d="M103.42,102.101c12.111,0,21.93-7.521,21.93-16.799H81.489
				C81.489,94.58,91.309,102.101,103.42,102.101z"/>
		</g>
		<g>
			<circle style="fill:#36C6FF;" cx="23.431" cy="41.519" r="21.931"/>
		</g>
		<g>
			<ellipse style="fill:#0086FF;" cx="23.431" cy="41.519" rx="21.931" ry="16.799"/>
		</g>
		<g>
			<path style="fill:#FFFFFF;" d="M1.501,41.519c0,12.113,9.82,21.932,21.932,21.932c12.111,0,21.93-9.818,21.93-21.932H1.501z"/>
		</g>
		<g>
			<path style="fill:#D8E5EA;" d="M23.432,58.318c12.111,0,21.93-7.521,21.93-16.799H1.501
				C1.501,50.797,11.321,58.318,23.432,58.318z"/>
		</g>
		<g>
			<path style="fill:#33363A;" d="M126.85,85.303c0-12.919-10.511-23.43-23.43-23.43c-12.92,0-23.432,10.511-23.432,23.43
				c0,12.857,10.411,23.326,23.245,23.427c-11.014,9.701-25,15.013-39.807,15.013c-16.115,0-31.265-6.275-42.66-17.671
				c-0.586-0.586-1.535-0.586-2.121,0s-0.586,1.535,0,2.121c11.962,11.962,27.865,18.55,44.781,18.55
				c16.885,0,32.762-6.566,44.715-18.486C118.806,106.065,126.85,96.606,126.85,85.303z M103.421,64.873
				c10.758,0,19.58,8.365,20.354,18.93H83.065C83.838,73.238,92.661,64.873,103.421,64.873z M103.421,105.734
				c-10.759,0-19.582-8.366-20.356-18.932h40.709C123.001,97.368,114.179,105.734,103.421,105.734z"/>
			<path style="fill:#33363A;" d="M46.862,41.519c0-12.856-10.41-23.323-23.242-23.425c23.669-20.817,59.87-19.941,82.467,2.656
				c0.293,0.293,0.677,0.439,1.061,0.439s0.768-0.146,1.061-0.439c0.586-0.586,0.586-1.535,0-2.121
				C83.537-6.042,43.407-6.062,18.71,18.568C8.046,20.759,0.001,30.217,0.001,41.519c0,12.92,10.512,23.432,23.432,23.432
				C36.351,64.951,46.862,54.439,46.862,41.519z M23.432,21.09c10.758,0,19.58,8.365,20.354,18.93H3.077
				C3.85,29.455,12.673,21.09,23.432,21.09z M3.077,43.019h40.709c-0.773,10.565-9.595,18.932-20.354,18.932
				C12.673,61.951,3.85,53.585,3.077,43.019z"/>
		</g>
		<g>
			<g>
				<g>
					<path style="fill:#FF8F8F;" d="M123.852,37.865c0.412,0.093,0.842-0.031,1.139-0.33c0.299-0.299,0.424-0.729,0.328-1.139
						l-5.072-22.242L101.61,32.792L123.852,37.865z"/>
				</g>
				<g>
					<path style="fill:#FF1A1A;" d="M118.79,32.226c0.25,0.057,0.512-0.02,0.691-0.202c0.182-0.181,0.26-0.44,0.201-0.691
						l-3.086-13.528L105.26,29.141L118.79,32.226z"/>
				</g>
				<g>
					<path style="fill:#33363A;" d="M124.129,39.396c-0.201,0-0.404-0.022-0.606-0.067l-22.247-5.074
						c-0.808-0.185-1.313-0.989-1.129-1.797c0.185-0.808,0.989-1.313,1.797-1.129l21.815,4.977l-4.976-21.817
						c-0.184-0.809,0.321-1.612,1.129-1.797c0.809-0.181,1.612,0.322,1.797,1.129l5.072,22.242c0.213,0.913-0.06,1.862-0.73,2.533
						C125.536,39.115,124.846,39.396,124.129,39.396z"/>
				</g>
				<g>
					<g>
						<path style="fill:#33363A;" d="M117.306,31.341c-0.4,0-0.79-0.16-1.07-0.439c-0.279-0.271-0.43-0.66-0.43-1.061
							c0-0.39,0.15-0.78,0.43-1.06c0.561-0.561,1.57-0.561,2.13,0c0.28,0.279,0.44,0.67,0.44,1.06c0,0.4-0.17,0.79-0.44,1.061
							C118.087,31.181,117.696,31.341,117.306,31.341z"/>
					</g>
					<g>
						<path style="fill:#33363A;" d="M114.116,28.161c-0.39,0-0.779-0.16-1.06-0.44c-0.28-0.279-0.44-0.67-0.44-1.06
							c0-0.4,0.16-0.78,0.44-1.061c0.56-0.56,1.55-0.56,2.12-0.01c0.28,0.29,0.439,0.68,0.439,1.07c0,0.39-0.159,0.78-0.439,1.06
							C114.896,28.001,114.506,28.161,114.116,28.161z"/>
					</g>
					<g>
						<path style="fill:#33363A;" d="M110.926,24.971c-0.391,0-0.78-0.16-1.061-0.439c-0.279-0.28-0.43-0.66-0.43-1.061
							c0-0.39,0.15-0.779,0.43-1.06c0.551-0.55,1.561-0.561,2.12,0c0.28,0.28,0.44,0.67,0.44,1.06c0,0.391-0.16,0.78-0.431,1.061
							C111.707,24.81,111.326,24.971,110.926,24.971z"/>
					</g>
				</g>
			</g>
			<g>
				<g>
					<path style="fill:#36C6FF;" d="M3.001,88.959c-0.412-0.094-0.842,0.03-1.141,0.328c-0.297,0.3-0.422,0.73-0.326,1.141
						l5.07,22.242l18.639-18.639L3.001,88.959z"/>
				</g>
				<g>
					<path style="fill:#0086FF;" d="M8.063,94.597c-0.252-0.057-0.512,0.021-0.693,0.202c-0.18,0.181-0.258,0.44-0.201,0.69
						l3.086,13.529L21.59,97.684L8.063,94.597z"/>
				</g>
				<g>
					<path style="fill:#33363A;" d="M6.603,114.17c-0.685,0-1.303-0.471-1.462-1.167l-5.07-22.242
						c-0.212-0.909,0.058-1.857,0.724-2.529c0.673-0.672,1.617-0.943,2.539-0.735l22.243,5.072c0.808,0.185,1.313,0.988,1.129,1.797
						c-0.185,0.808-0.988,1.313-1.797,1.129L3.093,90.518l4.974,21.818c0.184,0.808-0.322,1.611-1.13,1.796
						C6.826,114.158,6.713,114.17,6.603,114.17z"/>
				</g>
				<g>
					<g>
						<path style="fill:#33363A;" d="M9.546,98.48c-0.391,0-0.78-0.159-1.061-0.439c-0.279-0.28-0.439-0.67-0.439-1.061
							c0-0.399,0.16-0.779,0.439-1.06c0.561-0.56,1.57-0.56,2.13,0c0.271,0.28,0.431,0.66,0.431,1.06c0,0.391-0.16,0.78-0.431,1.061
							C10.326,98.321,9.946,98.48,9.546,98.48z"/>
					</g>
					<g>
						<path style="fill:#33363A;" d="M12.736,101.661c-0.39,0-0.779-0.16-1.06-0.44c-0.28-0.279-0.44-0.66-0.44-1.06
							c0-0.391,0.16-0.78,0.44-1.061c0.56-0.56,1.56-0.56,2.12,0c0.279,0.28,0.439,0.67,0.439,1.061c0,0.399-0.16,0.78-0.439,1.06
							C13.516,101.501,13.127,101.661,12.736,101.661z"/>
					</g>
					<g>
						<path style="fill:#33363A;" d="M15.926,104.85c-0.4,0-0.78-0.159-1.061-0.439c-0.279-0.28-0.439-0.67-0.439-1.061
							c0-0.399,0.16-0.779,0.439-1.06c0.551-0.561,1.561-0.561,2.12,0c0.28,0.28,0.44,0.66,0.44,1.06c0,0.391-0.16,0.78-0.44,1.061
							C16.707,104.691,16.316,104.85,15.926,104.85z"/>
					</g>
				</g>
			</g>
		</g>
		<g>
			<g>
				<circle style="fill:#A7BBC1;" cx="23.432" cy="44.032" r="7.251"/>
			</g>
			<g>
				<circle style="fill:#FFFFFF;" cx="23.432" cy="41.567" r="7.251"/>
			</g>
			<g>
				<path style="fill:#D8E5EA;" d="M18.305,46.695c-2.832-2.832-2.832-7.424,0-10.256c2.832-2.832,7.422-2.832,10.254,0"/>
			</g>
			<g>
				<path style="fill:#33363A;" d="M23.432,50.313c-2.241,0-4.481-0.853-6.188-2.558c-3.412-3.412-3.412-8.965,0-12.377
					s8.963-3.412,12.375,0s3.412,8.965,0,12.377C27.914,49.461,25.672,50.313,23.432,50.313z M23.432,35.818
					c-1.473,0-2.945,0.561-4.066,1.682c-2.242,2.243-2.242,5.892,0,8.135c2.243,2.241,5.892,2.241,8.133,0
					c2.242-2.243,2.242-5.892,0-8.135C26.378,36.379,24.905,35.818,23.432,35.818z"/>
			</g>
		</g>
		<g>
			<g>
				<circle style="fill:#A7BBC1;" cx="103.421" cy="87.815" r="7.251"/>
			</g>
			<g>
				<circle style="fill:#FFFFFF;" cx="103.421" cy="85.35" r="7.251"/>
			</g>
			<g>
				<path style="fill:#D8E5EA;" d="M98.294,90.478c-2.832-2.832-2.832-7.424,0-10.256c2.832-2.832,7.422-2.832,10.254,0"/>
			</g>
			<g>
				<path style="fill:#33363A;" d="M103.421,94.097c-2.241,0-4.481-0.853-6.188-2.558c-3.412-3.412-3.412-8.965,0-12.377
					s8.963-3.412,12.375,0s3.412,8.965,0,12.377C107.902,93.244,105.661,94.097,103.421,94.097z M103.421,79.601
					c-1.473,0-2.945,0.561-4.066,1.682c-2.242,2.243-2.242,5.892,0,8.135c2.243,2.241,5.892,2.241,8.133,0
					c2.242-2.243,2.242-5.892,0-8.135C106.366,80.162,104.893,79.601,103.421,79.601z"/>
			</g>
		</g>
	</g>
	<g>
		<g>
			<g>
				<g>
					<path style="fill:#FFFFFF;" d="M94.147,79.581c0.32,0.074,0.658-0.023,0.893-0.257c0.232-0.232,0.33-0.571,0.256-0.893
						l-3.971-17.413L76.733,75.61L94.147,79.581z"/>
				</g>
				<g>
					<path style="fill:#E4E9ED;" d="M90.182,75.167c0.197,0.045,0.402-0.015,0.543-0.156c0.143-0.142,0.201-0.346,0.156-0.543
						l-2.414-10.591l-8.875,8.875L90.182,75.167z"/>
				</g>
				<g>
					<path style="fill:#33363A;" d="M94.367,81.106c-0.186,0-0.372-0.021-0.559-0.064L76.4,77.073
						c-0.809-0.185-1.313-0.988-1.13-1.796c0.185-0.809,0.995-1.312,1.796-1.13l16.576,3.78l-3.78-16.576
						c-0.184-0.808,0.321-1.611,1.13-1.796c0.803-0.184,1.611,0.321,1.796,1.13l3.971,17.413c0.188,0.814-0.063,1.692-0.658,2.286
						C95.629,80.853,95.008,81.106,94.367,81.106z"/>
				</g>
				<g>
					<g>
						<path style="fill:#33363A;" d="M86.526,72.31c-0.399,0-0.78-0.159-1.06-0.439c-0.28-0.28-0.44-0.67-0.44-1.061
							c0-0.399,0.16-0.779,0.431-1.06c0.569-0.56,1.569-0.56,2.13,0c0.279,0.28,0.439,0.66,0.439,1.06
							c0,0.391-0.16,0.78-0.439,1.061C87.306,72.151,86.917,72.31,86.526,72.31z"/>
					</g>
				</g>
			</g>
			<g>
				<path style="fill:#33363A;" d="M81.424,67.209c-0.384,0-0.768-0.146-1.061-0.439L54.594,41c-0.586-0.586-0.586-1.535,0-2.121
					s1.535-0.586,2.121,0l25.77,25.77c0.586,0.586,0.586,1.535,0,2.121C82.192,67.062,81.808,67.209,81.424,67.209z"/>
			</g>
		</g>
		<g>
			<g>
				<g>
					<path style="fill:#FFFFFF;" d="M32.706,47.242c-0.322-0.075-0.66,0.022-0.893,0.256c-0.234,0.233-0.33,0.569-0.256,0.893
						l3.971,17.413l14.59-14.592L32.706,47.242z"/>
				</g>
				<g>
					<path style="fill:#E4E9ED;" d="M36.669,51.655c-0.195-0.045-0.4,0.014-0.543,0.156c-0.141,0.142-0.201,0.348-0.156,0.543
						l2.416,10.591l8.875-8.875L36.669,51.655z"/>
				</g>
				<g>
					<path style="fill:#33363A;" d="M35.527,67.304c-0.685,0-1.303-0.471-1.462-1.167l-3.971-17.413
						c-0.19-0.83,0.057-1.687,0.66-2.288c0.591-0.593,1.471-0.842,2.292-0.654l17.404,3.968c0.809,0.185,1.313,0.988,1.13,1.796
						c-0.185,0.809-0.984,1.313-1.796,1.13l-16.574-3.779l3.78,16.575c0.184,0.808-0.321,1.611-1.13,1.796
						C35.75,67.292,35.637,67.304,35.527,67.304z"/>
				</g>
				<g>
					<g>
						<path style="fill:#33363A;" d="M40.326,57.511c-0.39,0-0.779-0.16-1.06-0.439c-0.28-0.28-0.44-0.66-0.44-1.061
							c0-0.39,0.16-0.78,0.44-1.06c0.56-0.55,1.56-0.561,2.12,0c0.28,0.279,0.439,0.67,0.439,1.06c0,0.391-0.159,0.78-0.439,1.061
							C41.106,57.35,40.716,57.511,40.326,57.511z"/>
					</g>
				</g>
			</g>
			<g>
				<path style="fill:#33363A;" d="M71.198,88.384c-0.384,0-0.768-0.146-1.061-0.439l-25.77-25.769
					c-0.586-0.586-0.586-1.535,0-2.121s1.535-0.586,2.121,0l25.77,25.769c0.586,0.586,0.586,1.535,0,2.121
					C71.965,88.237,71.582,88.384,71.198,88.384z"/>
			</g>
		</g>
	</g>
</g>
<g>
</g>
<g>
</g>
<g>
</g>
<g>
</g>
<g>
</g>
<g>
</g>
<g>
</g>
<g>
</g>
<g>
</g>
<g>
</g>
<g>
</g>
<g>
</g>
<g>
</g>
<g>
</g>
<g>
</g>
</svg>
