<svg width="512.008" height="512.008" xmlns="http://www.w3.org/2000/svg">

 <g>
  <title>background</title>
  <rect fill="none" id="canvas_background" height="402" width="582" y="-1" x="-1"/>
 </g>
 <g>
  <title>Layer 1</title>
  <g id="svg_1">
   <g id="svg_2">
    <path fill="#ff0000" id="svg_3" d="m368.001434,64.402573c-41.231018,-36.915997 -94.494019,-53.811998 -149.954987,-47.665998c-83.921005,9.333 -154.393009,76.396002 -167.571011,159.479002c-10.718998,67.563004 13.844006,134.041992 65.701,177.791992c18.084,15.271027 31.32399,30.479004 40.867004,47.188019c13.011002,22.75 22.834,47.208008 29.219986,72.687988l3.625,14.5c5.75,23.041992 26.365997,39.125031 50.10701,39.125031s44.355972,-16.083038 50.106979,-39.125031l3.625,-14.5c6.385986,-25.479004 16.209015,-49.937988 28.022003,-71l42.492004,-49.229004c43.065002,-36.562988 67.764008,-89.832977 67.764008,-146.145981c-0.001007,-54.543015 -23.325012,-106.710014 -64.003998,-143.106018zm-296.444992,115.145996c11.707993,-73.770996 74.302002,-133.311996 148.854004,-141.603996c6.655991,-0.75 13.270996,-1.103996 19.833008,-1.103996c42.093979,0 81.832962,15.083 113.53096,43.458c33.487,29.964996 53.516998,71.989998 56.327026,116.542l-85.84201,0c-5.317993,-41.987 -40.855011,-74.667 -84.25499,-74.667s-78.938004,32.68 -84.255005,74.667l-85.822998,0c0.341995,-5.75 0.712997,-11.507004 1.630005,-17.292007zm232.447983,27.959c0,35.292007 -28.708008,64 -63.999985,64s-64,-28.707993 -64,-64c0,-35.291992 28.708008,-64 64,-64s63.999985,28.708008 63.999985,64zm45.270996,131.041016l-40.218994,46.416992l-4.625,5.645996c-13.979004,24.438019 -24.542023,50.708008 -31.38501,78.104004l-3.625,14.5c-3.38501,13.520996 -15.478989,22.958008 -29.416977,22.958008s-26.031006,-9.437988 -29.417007,-22.958008l-3.625,-14.5c-6.843994,-27.395996 -17.406006,-53.666992 -31.781006,-78.812988c-10.405991,-18.208008 -25.197998,-35.292023 -45.228989,-52.188019c-36.134003,-30.501007 -57.077011,-73.460968 -59.975006,-119.541992l85.772003,0c5.318008,41.987 40.855011,74.666992 84.255005,74.666992s78.937973,-32.679993 84.25499,-74.666992l85.826996,0c-2.898987,46.046997 -24.197998,89.121002 -60.811005,120.376007z"/>
   </g>
  </g>
  <g id="svg_4"/>
  <g id="svg_5"/>
  <g id="svg_6"/>
  <g id="svg_7"/>
  <g id="svg_8"/>
  <g id="svg_9"/>
  <g id="svg_10"/>
  <g id="svg_11"/>
  <g id="svg_12"/>
  <g id="svg_13"/>
  <g id="svg_14"/>
  <g id="svg_15"/>
  <g id="svg_16"/>
  <g id="svg_17"/>
  <g id="svg_18"/>
  <path id="svg_19" d="m202.755463,112.496918" opacity="0.5" stroke-width="1.5" stroke="#000" fill="#ff0000"/>
  <polyline stroke-linecap="round" id="svg_24" points="61.759331703186035,192.49472177028656 62.25931799411774,192.49472177028656 " stroke-width="1.5" stroke="#000" fill="none"/>
 </g>
</svg>