<?xml version="1.0" encoding="iso-8859-1"?>
<!-- Generator: Adobe Illustrator 19.0.0, SVG Export Plug-In . SVG Version: 6.00 Build 0)  -->
<svg version="1.1" id="Capa_1" xmlns="http://www.w3.org/2000/svg" xmlns:xlink="http://www.w3.org/1999/xlink" x="0px" y="0px"
	 viewBox="0 0 512.008 512.008" style="enable-background:new 0 0 512.008 512.008;" xml:space="preserve">
<g>
	<g>
		<path d="M384.001,48.903C342.77,11.987,289.507-4.909,234.046,1.237C150.125,10.57,79.653,77.633,66.475,160.716
			c-10.719,67.563,13.844,134.042,65.701,177.792c18.084,15.271,31.324,30.479,40.867,47.188
			c13.011,22.75,22.834,47.208,29.22,72.688l3.625,14.5c5.75,23.042,26.366,39.125,50.107,39.125s44.356-16.083,50.107-39.125
			l3.625-14.5c6.386-25.479,16.209-49.938,28.022-71l42.492-49.229c43.065-36.563,67.764-89.833,67.764-146.146
			C448.004,137.466,424.68,85.299,384.001,48.903z M87.556,164.049C99.264,90.278,161.858,30.737,236.41,22.445
			c6.656-0.75,13.271-1.104,19.833-1.104c42.094,0,81.833,15.083,113.531,43.458c33.487,29.965,53.517,71.99,56.327,116.542h-85.842
			c-5.318-41.987-40.855-74.667-84.255-74.667s-78.938,32.68-84.255,74.667H85.926C86.268,175.591,86.639,169.834,87.556,164.049z
			 M320.004,192.008c0,35.292-28.708,64-64,64s-64-28.708-64-64c0-35.292,28.708-64,64-64S320.004,156.716,320.004,192.008z
			 M365.275,323.049l-40.219,46.417l-4.625,5.646c-13.979,24.438-24.542,50.708-31.385,78.104l-3.625,14.5
			c-3.385,13.521-15.479,22.958-29.417,22.958s-26.031-9.438-29.417-22.958l-3.625-14.5c-6.844-27.396-17.406-53.667-31.781-78.813
			c-10.406-18.208-25.198-35.292-45.229-52.188c-36.134-30.501-57.077-73.461-59.975-119.542h85.772
			c5.318,41.987,40.855,74.667,84.255,74.667s78.938-32.68,84.255-74.667h85.827C423.187,248.72,401.888,291.794,365.275,323.049z"
			/>
	</g>
</g>
<g>
</g>
<g>
</g>
<g>
</g>
<g>
</g>
<g>
</g>
<g>
</g>
<g>
</g>
<g>
</g>
<g>
</g>
<g>
</g>
<g>
</g>
<g>
</g>
<g>
</g>
<g>
</g>
<g>
</g>
</svg>
